<svg width="25" height="25" viewBox="0 0 25 25" fill="none" xmlns="http://www.w3.org/2000/svg">
<path d="M2.08398 12.5C2.08398 18.2532 6.74753 22.9167 12.5007 22.9167C18.2538 22.9167 22.9173 18.2532 22.9173 12.5C22.9173 6.74692 18.2538 2.08337 12.5007 2.08337C6.74753 2.08337 2.08398 6.74692 2.08398 12.5Z" stroke="white" stroke-width="1.5" stroke-linecap="round" stroke-linejoin="round"/>
<path d="M13.5423 2.1355C13.5423 2.1355 16.6673 6.25008 16.6673 12.5001C16.6673 18.7501 13.5423 22.8647 13.5423 22.8647M11.459 22.8647C11.459 22.8647 8.33398 18.7501 8.33398 12.5001C8.33398 6.25008 11.459 2.1355 11.459 2.1355M2.74023 16.1459H22.2611M2.74023 8.85425H22.2611" stroke="white" stroke-width="1.5" stroke-linecap="round" stroke-linejoin="round"/>
</svg>
